# xmcd CD database file
# Copyright (C) 1993-1996 Ti Kan
#
# Track frame offsets:
# 150
# 14555
# 28295
# 43967
# 57205
# 70817
# 84530
# 100652
# 113710
# 128397
#
# Disc length: 1909 seconds
# Revision: 0
# Processed by: cddbd v1.4b41PL1 Copyright (c) Steve Scherf et al.
# Submitted via: CDSpectrumPro v3.2.327
#
DISCID=8007730a
DTITLE=Lou Paul - Running South On A North Bound Train
DYEAR=1900
DGENRE=
TTITLE0=( I Think ) I Must Be Going Out Of Her Mind
TTITLE1=Running South On A North Bound Train
TTITLE2=Stranger In The Mirror
TTITLE3=Raining In The Country
TTITLE4=I'm Getting Suspicious
TTITLE5=Danielle
TTITLE6=The Love In My Lady's Eyes
TTITLE7=( You Ain't Got ) No Right To Sing The Blues
TTITLE8=Raisin' Cows And Raisin' Hell
TTITLE9=She's Getting Me Over You
EXTD=
EXTT0=
EXTT1=
EXTT2=
EXTT3=
EXTT4=
EXTT5=
EXTT6=
EXTT7=
EXTT8=
EXTT9=
PLAYORDER=
